<svg width="36" height="29" viewBox="0 0 36 29" fill="none" xmlns="http://www.w3.org/2000/svg">
<path d="M33.4302 0.340088H2.75204C2.14959 0.34085 1.57204 0.57238 1.14604 0.983905C0.720045 1.39543 0.480373 1.95336 0.479584 2.53534V21.195C0.480373 21.777 0.720045 22.3349 1.14604 22.7465C1.57204 23.158 2.14959 23.3895 2.75204 23.3903H14.4623L13.7046 25.5855H11.8419C11.6912 25.5855 11.5467 25.6433 11.4402 25.7463C11.3336 25.8492 11.2738 25.9888 11.2738 26.1343V27.232H6.16073C6.01006 27.232 5.86555 27.2898 5.75901 27.3927C5.65247 27.4956 5.59261 27.6352 5.59261 27.7808C5.59261 27.9263 5.65247 28.0659 5.75901 28.1689C5.86555 28.2718 6.01006 28.3296 6.16073 28.3296H31.1578C31.3084 28.3296 31.4529 28.2718 31.5595 28.1689C31.666 28.0659 31.7259 27.9263 31.7259 27.7808C31.7259 27.6352 31.666 27.4956 31.5595 27.3927C31.4529 27.2898 31.3084 27.232 31.1578 27.232H24.9085V26.1343C24.9085 25.9888 24.8487 25.8492 24.7421 25.7463C24.6356 25.6433 24.4911 25.5855 24.3404 25.5855H22.4777L21.72 23.3903H33.4302C34.0327 23.3895 34.6102 23.158 35.0362 22.7465C35.4622 22.3349 35.7019 21.777 35.7027 21.195V2.53534C35.7019 1.95336 35.4622 1.39543 35.0362 0.983905C34.6102 0.57238 34.0327 0.34085 33.4302 0.340088ZM23.7723 26.6832V27.232H12.41V26.6832H23.7723ZM14.9026 25.5855L15.6603 23.3903H20.522L21.2797 25.5855H14.9026ZM34.5665 21.195C34.5661 21.486 34.4462 21.765 34.2332 21.9707C34.0202 22.1765 33.7314 22.2923 33.4302 22.2926H2.75204C2.45082 22.2923 2.16204 22.1765 1.94904 21.9707C1.73604 21.765 1.61621 21.486 1.61581 21.195V20.0974H34.5665V21.195ZM10.1134 14.0604L9.90034 18.9998H9.23849L9.02545 14.0604H10.1134ZM9.10356 12.9628L9.48278 10.7676H9.65605L10.0353 12.9628H9.10356ZM9.56942 9.66992C8.95372 9.66992 8.43319 8.91599 8.43319 8.02348C8.43319 7.46026 9.02829 6.64184 9.56799 6.0649C10.0544 6.58628 10.7056 7.41979 10.7056 8.02348C10.7056 8.91599 10.1851 9.66992 9.56942 9.66992ZM15.7519 8.5723L15.8187 8.70195V9.12111H13.5462V8.70195L13.613 8.5723H15.7519ZM14.1811 7.47467L14.6824 6.5067L15.1838 7.47467H14.1811ZM15.8187 10.2187V18.9312C15.8189 18.9541 15.8206 18.977 15.8236 18.9998H13.5412C13.5443 18.977 13.546 18.9541 13.5462 18.9312V10.2187H15.8187ZM20.9317 8.02348H22.636V9.12111H22.0679C21.9173 9.12111 21.7728 9.17893 21.6662 9.28185C21.5597 9.38478 21.4998 9.52437 21.4998 9.66992C21.4998 9.81548 21.5597 9.95507 21.6662 10.058C21.7728 10.1609 21.9173 10.2187 22.0679 10.2187H22.636V11.3164H20.9317C20.781 11.3164 20.6365 11.3742 20.53 11.4771C20.4234 11.58 20.3636 11.7196 20.3636 11.8652C20.3636 12.0107 20.4234 12.1503 20.53 12.2533C20.6365 12.3562 20.781 12.414 20.9317 12.414H22.636V13.5116H22.0679C21.9173 13.5116 21.7728 13.5694 21.6662 13.6724C21.5597 13.7753 21.4998 13.9149 21.4998 14.0604C21.4998 14.206 21.5597 14.3456 21.6662 14.4485C21.7728 14.5514 21.9173 14.6093 22.0679 14.6093H22.636V15.7069H20.9317C20.781 15.7069 20.6365 15.7647 20.53 15.8676C20.4234 15.9705 20.3636 16.1101 20.3636 16.2557C20.3636 16.4012 20.4234 16.5408 20.53 16.6438C20.6365 16.7467 20.781 16.8045 20.9317 16.8045H22.636V18.9998H18.6592V5.82823H22.636V6.92586H20.9317C20.781 6.92586 20.6365 6.98368 20.53 7.0866C20.4234 7.18952 20.3636 7.32911 20.3636 7.47467C20.3636 7.62022 20.4234 7.75982 20.53 7.86274C20.6365 7.96566 20.781 8.02348 20.9317 8.02348ZM27.7491 14.6093V18.9312C27.7493 18.9541 27.751 18.977 27.754 18.9998H25.4716C25.4747 18.977 25.4764 18.9541 25.4766 18.9312V14.6093H27.7491ZM25.4766 13.5116V13.0925L26.6128 10.8972L27.7491 13.0925V13.5116H25.4766ZM34.5665 18.9998H28.8803C28.8834 18.977 28.8851 18.9541 28.8853 18.9312V12.9628C28.8852 12.8776 28.8648 12.7936 28.8257 12.7172L27.1213 9.42433C27.074 9.33319 27.0014 9.25656 26.9116 9.203C26.8218 9.14945 26.7184 9.12109 26.6128 9.12109C26.5073 9.12109 26.4039 9.14945 26.3141 9.203C26.2243 9.25656 26.1517 9.33319 26.1044 9.42433L24.4 12.7172C24.3609 12.7936 24.3405 12.8776 24.3404 12.9628V18.9312C24.3406 18.9541 24.3423 18.977 24.3454 18.9998H23.7723V5.27941C23.7723 5.13386 23.7124 4.99427 23.6059 4.89134C23.4993 4.78842 23.3548 4.7306 23.2042 4.7306H18.0911C17.9405 4.7306 17.796 4.78842 17.6894 4.89134C17.5829 4.99427 17.523 5.13386 17.523 5.27941V18.9998H16.9499C16.953 18.977 16.9547 18.9541 16.9549 18.9312V8.5723C16.9548 8.48709 16.9344 8.40305 16.8953 8.3267L15.1909 5.03382C15.1436 4.94268 15.071 4.86605 14.9812 4.81249C14.8914 4.75894 14.788 4.73058 14.6824 4.73058C14.5769 4.73058 14.4735 4.75894 14.3837 4.81249C14.2939 4.86605 14.2213 4.94268 14.174 5.03382L12.4696 8.3267C12.4305 8.40305 12.4101 8.48709 12.41 8.5723V18.9312C12.4102 18.9541 12.4119 18.977 12.415 18.9998H11.0373L11.273 13.5343C11.2738 13.5219 11.273 13.5096 11.273 13.4965V13.4801C11.2717 13.4607 11.2694 13.4415 11.2659 13.4224V13.4211L10.7404 10.3745C11.4002 9.89357 11.8419 9.01958 11.8419 8.02348C11.8419 6.61303 10.1496 5.05097 9.95644 4.87741C9.85118 4.78315 9.71295 4.73078 9.56942 4.73078C9.42588 4.73078 9.28765 4.78315 9.18239 4.87741C8.98923 5.05097 7.29696 6.61303 7.29696 8.02348C7.29696 9.01958 7.73867 9.89357 8.39839 10.3745L7.87288 13.4211V13.4224C7.86947 13.4415 7.8671 13.4607 7.86578 13.4801V13.4965C7.86578 13.5096 7.86507 13.5219 7.86578 13.5343L8.10155 18.9998H1.61581V2.53534C1.61621 2.24435 1.73604 1.96539 1.94904 1.75962C2.16204 1.55386 2.45082 1.4381 2.75204 1.43772H33.4302C33.7314 1.4381 34.0202 1.55386 34.2332 1.75962C34.4462 1.96539 34.5661 2.24435 34.5665 2.53534V18.9998Z" fill="black"/>
<path d="M6.72888 20.6462H3.32019C3.16952 20.6462 3.02501 20.7041 2.91847 20.807C2.81193 20.9099 2.75208 21.0495 2.75208 21.1951C2.75208 21.3406 2.81193 21.4802 2.91847 21.5831C3.02501 21.686 3.16952 21.7439 3.32019 21.7439H6.72888C6.87955 21.7439 7.02405 21.686 7.13059 21.5831C7.23714 21.4802 7.29699 21.3406 7.29699 21.1951C7.29699 21.0495 7.23714 20.9099 7.13059 20.807C7.02405 20.7041 6.87955 20.6462 6.72888 20.6462Z" fill="black"/>
<path d="M9.00134 20.6462H8.43323C8.28255 20.6462 8.13805 20.7041 8.03151 20.807C7.92497 20.9099 7.86511 21.0495 7.86511 21.1951C7.86511 21.3406 7.92497 21.4802 8.03151 21.5831C8.13805 21.686 8.28255 21.7439 8.43323 21.7439H9.00134C9.15201 21.7439 9.29652 21.686 9.40306 21.5831C9.5096 21.4802 9.56946 21.3406 9.56946 21.1951C9.56946 21.0495 9.5096 20.9099 9.40306 20.807C9.29652 20.7041 9.15201 20.6462 9.00134 20.6462Z" fill="black"/>
<path d="M14.6825 10.7673C14.5318 10.7673 14.3873 10.8252 14.2807 10.9281C14.1742 11.031 14.1143 11.1706 14.1143 11.3161V17.3531C14.1143 17.4987 14.1742 17.6382 14.2807 17.7412C14.3873 17.8441 14.5318 17.9019 14.6825 17.9019C14.8331 17.9019 14.9776 17.8441 15.0842 17.7412C15.1907 17.6382 15.2506 17.4987 15.2506 17.3531V11.3161C15.2506 11.1706 15.1907 11.031 15.0842 10.9281C14.9776 10.8252 14.8331 10.7673 14.6825 10.7673Z" fill="black"/>
<path d="M26.6129 15.158C26.4622 15.158 26.3177 15.2158 26.2111 15.3187C26.1046 15.4216 26.0447 15.5612 26.0447 15.7068V17.3532C26.0447 17.4988 26.1046 17.6384 26.2111 17.7413C26.3177 17.8442 26.4622 17.902 26.6129 17.902C26.7635 17.902 26.908 17.8442 27.0146 17.7413C27.1211 17.6384 27.181 17.4988 27.181 17.3532V15.7068C27.181 15.5612 27.1211 15.4216 27.0146 15.3187C26.908 15.2158 26.7635 15.158 26.6129 15.158Z" fill="black"/>
<path d="M3.32019 3.63303H7.8651C8.01578 3.63303 8.16028 3.57521 8.26682 3.47228C8.37336 3.36936 8.43322 3.22977 8.43322 3.08421C8.43322 2.93866 8.37336 2.79907 8.26682 2.69614C8.16028 2.59322 8.01578 2.5354 7.8651 2.5354H3.32019C3.16952 2.5354 3.02501 2.59322 2.91847 2.69614C2.81193 2.79907 2.75208 2.93866 2.75208 3.08421C2.75208 3.22977 2.81193 3.36936 2.91847 3.47228C3.02501 3.57521 3.16952 3.63303 3.32019 3.63303Z" fill="black"/>
<path d="M3.32019 5.27951H4.45642C4.60709 5.27951 4.75159 5.22169 4.85814 5.11877C4.96468 5.01585 5.02453 4.87625 5.02453 4.7307C5.02453 4.58514 4.96468 4.44555 4.85814 4.34263C4.75159 4.23971 4.60709 4.18188 4.45642 4.18188H3.32019C3.16952 4.18188 3.02501 4.23971 2.91847 4.34263C2.81193 4.44555 2.75208 4.58514 2.75208 4.7307C2.75208 4.87625 2.81193 5.01585 2.91847 5.11877C3.02501 5.22169 3.16952 5.27951 3.32019 5.27951Z" fill="black"/>
<path d="M30.5897 17.9021H32.8621C33.0128 17.9021 33.1573 17.8443 33.2638 17.7413C33.3704 17.6384 33.4302 17.4988 33.4302 17.3533C33.4302 17.2077 33.3704 17.0681 33.2638 16.9652C33.1573 16.8623 33.0128 16.8044 32.8621 16.8044H30.5897C30.439 16.8044 30.2945 16.8623 30.1879 16.9652C30.0814 17.0681 30.0215 17.2077 30.0215 17.3533C30.0215 17.4988 30.0814 17.6384 30.1879 17.7413C30.2945 17.8443 30.439 17.9021 30.5897 17.9021Z" fill="black"/>
<path d="M32.294 16.2556H32.8621C33.0128 16.2556 33.1573 16.1978 33.2638 16.0948C33.3704 15.9919 33.4302 15.8523 33.4302 15.7068C33.4302 15.5612 33.3704 15.4216 33.2638 15.3187C33.1573 15.2158 33.0128 15.158 32.8621 15.158H32.294C32.1433 15.158 31.9988 15.2158 31.8923 15.3187C31.7857 15.4216 31.7259 15.5612 31.7259 15.7068C31.7259 15.8523 31.7857 15.9919 31.8923 16.0948C31.9988 16.1978 32.1433 16.2556 32.294 16.2556Z" fill="black"/>
</svg>
