<svg width="36" height="33" viewBox="0 0 36 33" fill="none" xmlns="http://www.w3.org/2000/svg">
<path d="M0.65271 0.970215V28.8998H11.9579V30.8968H9.89162V32.8906H26.6368V30.8968H24.5705V28.8998H35.8758V0.970215H0.65271ZM22.5065 30.8968H14.0219V28.8998H22.5066V30.8968H22.5065ZM33.8119 26.906H2.71663V22.9135H33.8118V26.906H33.8119ZM33.8119 20.9197H2.71663V2.96409H33.8118V20.9197H33.8119Z" fill="black"/>
<path d="M14.683 8.3383L13.2236 6.92847L8.03372 11.942L13.2236 16.9554L14.683 15.5456L10.9526 11.942L14.683 8.3383Z" fill="black"/>
<path d="M23.305 6.92847L21.8456 8.3383L25.576 11.942L21.8456 15.5456L23.305 16.9554L28.4948 11.942L23.305 6.92847Z" fill="black"/>
<path d="M18.4501 5.92998L16.0541 17.5657L18.0785 17.9547L20.4745 6.31899L18.4501 5.92998Z" fill="black"/>
</svg>
